<?xml version="1.0" encoding="utf-8"?>
<!-- Generator: Adobe Illustrator 19.2.1, SVG Export Plug-In . SVG Version: 6.00 Build 0)  -->
<svg version="1.1" id="Layer_1" xmlns="http://www.w3.org/2000/svg" xmlns:xlink="http://www.w3.org/1999/xlink" x="0px" y="0px"
	 viewBox="0 0 48 48" style="enable-background:new 0 0 48 48;" xml:space="preserve">
<style type="text/css">
	.st0{fill:none;stroke:#BFA69A;stroke-miterlimit:10;}
</style>
<path class="st0" d="M32.4,30.6c-0.2,0.2-0.3,0.4-0.5,0.5c-0.3,0.3-0.6,0.6-0.9,0.9c-0.5,0.5-1,0.7-1.7,0.7c-0.1,0-0.1,0-0.2,0
	c-1.3-0.1-2.6-0.6-3.5-1c-2.5-1.2-4.7-2.9-6.6-5.1c-1.5-1.8-2.5-3.5-3.2-5.3c-0.4-1.1-0.6-2-0.5-2.8c0-0.5,0.3-1,0.6-1.4l1.5-1.5
	c0.2-0.2,0.5-0.3,0.7-0.3s0.5,0.1,0.7,0.3c0.3,0.3,0.5,0.5,0.8,0.8c0.1,0.1,0.3,0.3,0.4,0.4l1.2,1.2c0.3,0.3,0.4,0.5,0.4,0.7
	s-0.1,0.5-0.4,0.7c-0.1,0.1-0.3,0.3-0.4,0.4c-0.4,0.4-0.7,0.7-1.1,1.1l0,0c-0.3,0.3-0.3,0.7-0.2,0.9l0,0c0.3,0.7,0.7,1.5,1.4,2.3
	c1.2,1.5,2.5,2.7,3.9,3.6c0.2,0.1,0.4,0.2,0.5,0.3c0.2,0.1,0.3,0.1,0.4,0.2l0,0c0.1,0.1,0.3,0.1,0.4,0.1c0.3,0,0.6-0.2,0.6-0.3
	l1.5-1.5c0.2-0.2,0.5-0.3,0.7-0.3c0.3,0,0.5,0.2,0.7,0.3l2.4,2.4C33,29.7,32.7,30.3,32.4,30.6z"/>
</svg>
