<?xml version="1.0" encoding="utf-8"?>
<!-- Generator: Adobe Illustrator 19.2.1, SVG Export Plug-In . SVG Version: 6.00 Build 0)  -->
<svg version="1.1" id="Layer_1" xmlns="http://www.w3.org/2000/svg" xmlns:xlink="http://www.w3.org/1999/xlink" x="0px" y="0px"
	 viewBox="0 0 48 48" style="enable-background:new 0 0 48 48;" xml:space="preserve">
<style type="text/css">
	.st0{fill:none;stroke:#A5A5A5;stroke-miterlimit:10;}
</style>
<path class="st0" d="M34.2,32.1c-0.2,0.2-0.4,0.4-0.7,0.7c-0.3,0.3-0.7,0.7-1,1.1c-0.6,0.6-1.2,0.9-2.1,0.9c-0.1,0-0.2,0-0.3,0
	c-1.6-0.1-3.1-0.7-4.3-1.3c-3.1-1.5-5.8-3.6-8-6.3C16,25,14.8,22.9,14,20.7c-0.5-1.4-0.7-2.4-0.6-3.4c0.1-0.7,0.3-1.2,0.8-1.7
	l1.8-1.8c0.3-0.3,0.6-0.4,0.9-0.4s0.6,0.1,0.9,0.4c0.3,0.3,0.7,0.6,1,1c0.2,0.2,0.3,0.3,0.5,0.5l1.5,1.5c0.3,0.3,0.4,0.6,0.4,0.9
	s-0.2,0.6-0.4,0.9c-0.2,0.2-0.3,0.3-0.5,0.5c-0.5,0.5-0.9,0.9-1.4,1.3l0,0c-0.4,0.4-0.4,0.8-0.3,1.1c0,0,0,0,0,0.1
	c0.4,0.9,0.9,1.8,1.7,2.8c1.5,1.8,3.1,3.3,4.8,4.4c0.2,0.1,0.4,0.3,0.7,0.4c0.2,0.1,0.4,0.2,0.5,0.3c0,0,0,0,0.1,0
	c0.2,0.1,0.3,0.1,0.5,0.1c0.4,0,0.7-0.3,0.8-0.4l1.8-1.8c0.3-0.3,0.6-0.4,0.9-0.4c0.4,0,0.7,0.2,0.9,0.4l3,3
	C35,31,34.6,31.7,34.2,32.1z"/>
</svg>
